<?xml version="1.0" encoding="UTF-8"?>
<mxfile host="app.diagrams.net">
  <diagram name="MER">
    <mxGraphModel>
      <root>
        <mxCell id="0"/>
        <mxCell id="1" parent="0"/>
        <mxCell id="student" value="Student(id, first_name, last_name, email)" style="rounded=1;" vertex="1" parent="1">
          <mxGeometry x="40" y="40" width="220" height="120" as="geometry"/>
        </mxCell>
        <mxCell id="course" value="Course(id, code, name, credits, teacher_id)" style="rounded=1;" vertex="1" parent="1">
          <mxGeometry x="320" y="40" width="300" height="120" as="geometry"/>
        </mxCell>
        <mxCell id="enrollment" value="Enrollment(id, student_id, course_id, grade)" style="rounded=1;" vertex="1" parent="1">
          <mxGeometry x="200" y="200" width="260" height="120" as="geometry"/>
        </mxCell>
        <mxCell id="teacher" value="Teacher(id, first_name, last_name, email)" style="rounded=1;" vertex="1" parent="1">
          <mxGeometry x="660" y="40" width="240" height="120" as="geometry"/>
        </mxCell>
      </root>
    </mxGraphModel>
  </diagram>
</mxfile>
